<mxfile host="app.diagrams.net" modified="2021-08-23T10:54:34.922Z" agent="5.0 (Macintosh; Intel Mac OS X 10_14_6) AppleWebKit/605.1.15 (KHTML, like Gecko) Version/14.0.3 Safari/605.1.15" etag="bpVh29xBBagpriYFdQlJ" version="14.9.8" type="github">
  <diagram id="tcdGcAZFvRJvybbPnE4B" name="Page-1">
    <mxGraphModel dx="1181" dy="741" grid="1" gridSize="10" guides="1" tooltips="1" connect="1" arrows="1" fold="1" page="1" pageScale="1" pageWidth="827" pageHeight="1169" math="0" shadow="0">
      <root>
        <mxCell id="0" />
        <mxCell id="1" parent="0" />
        <mxCell id="RoJOl014dbZNM4XuXOfx-2" value="" style="ellipse;whiteSpace=wrap;html=1;fillColor=#dae8fc;strokeColor=none;" vertex="1" parent="1">
          <mxGeometry x="120" y="40" width="600" height="400" as="geometry" />
        </mxCell>
        <mxCell id="RoJOl014dbZNM4XuXOfx-4" value="&lt;font style=&quot;font-size: 24px&quot;&gt;&amp;lt;Aggregate Root&amp;gt;&lt;br&gt;User&lt;/font&gt;" style="rounded=1;whiteSpace=wrap;html=1;strokeColor=#36393d;fillColor=#CCCCCC;" vertex="1" parent="1">
          <mxGeometry x="240" y="80" width="240" height="80" as="geometry" />
        </mxCell>
        <mxCell id="RoJOl014dbZNM4XuXOfx-6" value="&lt;font style=&quot;font-size: 24px&quot;&gt;UserId&lt;/font&gt;" style="rounded=1;whiteSpace=wrap;html=1;strokeColor=#36393d;fillColor=#CCCCCC;" vertex="1" parent="1">
          <mxGeometry x="200" y="280" width="200" height="80" as="geometry" />
        </mxCell>
        <mxCell id="RoJOl014dbZNM4XuXOfx-7" value="&lt;font style=&quot;font-size: 24px&quot;&gt;UserName&lt;/font&gt;" style="rounded=1;whiteSpace=wrap;html=1;strokeColor=#36393d;fillColor=#CCCCCC;" vertex="1" parent="1">
          <mxGeometry x="450" y="280" width="200" height="80" as="geometry" />
        </mxCell>
        <mxCell id="RoJOl014dbZNM4XuXOfx-8" value="" style="endArrow=classic;html=1;exitX=0.5;exitY=1;exitDx=0;exitDy=0;entryX=0.5;entryY=0;entryDx=0;entryDy=0;fillColor=#1ba1e2;strokeColor=#006EAF;" edge="1" parent="1" source="RoJOl014dbZNM4XuXOfx-4" target="RoJOl014dbZNM4XuXOfx-6">
          <mxGeometry width="50" height="50" relative="1" as="geometry">
            <mxPoint x="390" y="410" as="sourcePoint" />
            <mxPoint x="440" y="360" as="targetPoint" />
          </mxGeometry>
        </mxCell>
        <mxCell id="RoJOl014dbZNM4XuXOfx-9" value="" style="endArrow=classic;html=1;exitX=0.5;exitY=1;exitDx=0;exitDy=0;entryX=0.5;entryY=0;entryDx=0;entryDy=0;fillColor=#1ba1e2;strokeColor=#006EAF;" edge="1" parent="1" source="RoJOl014dbZNM4XuXOfx-4" target="RoJOl014dbZNM4XuXOfx-7">
          <mxGeometry width="50" height="50" relative="1" as="geometry">
            <mxPoint x="370" y="170" as="sourcePoint" />
            <mxPoint x="310" y="290" as="targetPoint" />
          </mxGeometry>
        </mxCell>
      </root>
    </mxGraphModel>
  </diagram>
</mxfile>
